<svg preserveAspectRatio="none" width="100%" height="100%" overflow="visible" style="display: block;" viewBox="0 0 19 19" fill="none" xmlns="http://www.w3.org/2000/svg">
<g id="Layer_1">
<path id="Vector" d="M16.9068 3.92403C16.9216 3.8024 16.8446 3.68845 16.7262 3.65685C14.3688 2.61834 12.0128 1.57091 9.65759 0.514284C9.54931 0.461905 9.42303 0.461905 9.31461 0.514284C6.9669 1.5612 4.62023 2.60513 2.27497 3.64602C2.1507 3.68971 2.0749 3.81549 2.09442 3.94568V6.54861V8.63152C2.0856 10.9912 2.88148 13.2834 4.35071 15.1296C5.55554 16.7262 7.23819 17.8966 9.15404 18.4709C9.37828 18.543 9.61941 18.543 9.84366 18.4709C11.9213 17.8464 13.5585 16.61 14.8401 14.8844C15.8437 13.5417 16.5058 11.975 16.7696 10.3195C16.8506 9.79928 16.8927 9.27376 16.896 8.74733C16.914 7.14085 16.896 5.52896 16.9068 3.92434L16.9068 3.92403ZM15.6576 8.86982C15.6547 9.30687 15.6191 9.74314 15.5511 10.1749C15.3317 11.5495 14.7817 12.8503 13.9483 13.9654C12.9316 15.3897 11.4717 16.437 9.79671 16.9438C9.61061 17.0034 9.41066 17.0034 9.22458 16.9438C7.6327 16.4676 6.23412 15.4964 5.23158 14.1713C4.00358 12.6421 3.33539 10.7391 3.33817 8.77777V7.04487V4.88779L3.35806 4.88791C3.34131 4.77787 3.40716 4.67223 3.51318 4.63874C5.45546 3.77474 7.40432 2.9071 9.35988 2.03594C9.4489 1.99087 9.55416 1.99087 9.6433 2.03594C11.5987 2.90836 13.5547 3.77777 15.5113 4.64415C15.6081 4.67185 15.6703 4.76629 15.6575 4.86613L15.6576 8.86982Z" fill="var(--fill-0, black)"/>
<path id="Vector_2" d="M9.4753 3.27179V15.7263C9.3974 15.7244 9.3214 15.7111 9.2473 15.6883C7.8565 15.2665 6.6462 14.3963 5.80071 13.2145C5.1091 12.2873 4.6531 11.2062 4.47071 10.0643C4.4365 9.88379 4.4175 9.6805 4.4042 9.5C4.38711 9.30239 4.3795 9.1048 4.3776 8.9034V5.6544C4.3776 5.6487 4.37571 5.6411 4.37571 5.63539C4.37571 5.5575 4.4289 5.4853 4.50679 5.4625L9.3803 3.2965C9.4012 3.2851 9.4259 3.2775 9.4506 3.2737C9.45821 3.27179 9.4677 3.27179 9.4753 3.27179Z" fill="var(--fill-0, black)"/>
</g>
</svg>
