<svg preserveAspectRatio="none" width="100%" height="100%" overflow="visible" style="display: block;" viewBox="0 0 18.9181 18.9181" fill="none" xmlns="http://www.w3.org/2000/svg">
<g id="SVG">
<path id="Vector" d="M14.9769 13.4003H16.5534C17.0263 13.4003 17.3416 13.085 17.3416 12.612V10.2473C17.3416 9.53785 16.7898 8.90725 16.1592 8.7496C14.7404 8.35547 12.6121 7.88252 12.6121 7.88252C12.6121 7.88252 11.5874 6.77896 10.8779 6.06953C10.4838 5.75423 10.0108 5.51775 9.45906 5.51775H3.94128C3.46832 5.51775 3.0742 5.83305 2.83772 6.22718L1.73416 8.51312C1.62978 8.81756 1.57651 9.13719 1.57651 9.45903V12.612C1.57651 13.085 1.89181 13.4003 2.36477 13.4003H3.94128" stroke="var(--stroke-0, black)" stroke-width="1.57651" stroke-linecap="round" stroke-linejoin="round"/>
<path id="Vector_2" d="M5.51779 14.9768C6.38847 14.9768 7.0943 14.271 7.0943 13.4003C7.0943 12.5296 6.38847 11.8238 5.51779 11.8238C4.64711 11.8238 3.94128 12.5296 3.94128 13.4003C3.94128 14.271 4.64711 14.9768 5.51779 14.9768Z" stroke="var(--stroke-0, black)" stroke-width="1.57651" stroke-linecap="round" stroke-linejoin="round"/>
<path id="Vector_3" d="M7.0943 13.4003H11.8238" stroke="var(--stroke-0, black)" stroke-width="1.57651" stroke-linecap="round" stroke-linejoin="round"/>
<path id="Vector_4" d="M13.4003 14.9768C14.271 14.9768 14.9769 14.271 14.9769 13.4003C14.9769 12.5296 14.271 11.8238 13.4003 11.8238C12.5297 11.8238 11.8238 12.5296 11.8238 13.4003C11.8238 14.271 12.5297 14.9768 13.4003 14.9768Z" stroke="var(--stroke-0, black)" stroke-width="1.57651" stroke-linecap="round" stroke-linejoin="round"/>
</g>
</svg>
