<svg preserveAspectRatio="none" width="100%" height="100%" overflow="visible" style="display: block;" viewBox="0 0 18.9181 18.9181" fill="none" xmlns="http://www.w3.org/2000/svg">
<g id="SVG">
<path id="Vector" d="M11.8238 16.5533V10.2473C11.8238 10.0382 11.7408 9.83775 11.593 9.68992C11.4451 9.54209 11.2446 9.45905 11.0356 9.45905H7.88257C7.67351 9.45905 7.47301 9.54209 7.32519 9.68992C7.17736 9.83775 7.09431 10.0382 7.09431 10.2473V16.5533" stroke="var(--stroke-0, black)" stroke-width="1.57651" stroke-linecap="round" stroke-linejoin="round"/>
<path id="Vector_2" d="M2.36478 7.88255C2.36473 7.65322 2.4147 7.42664 2.51123 7.21861C2.60775 7.01059 2.7485 6.82613 2.92365 6.67809L8.44144 1.94935C8.72599 1.70886 9.08652 1.57692 9.45908 1.57692C9.83164 1.57692 10.1922 1.70886 10.4767 1.94935L15.9945 6.67809C16.1697 6.82613 16.3104 7.01059 16.4069 7.21861C16.5035 7.42664 16.5534 7.65322 16.5534 7.88255V14.9768C16.5534 15.395 16.3873 15.796 16.0916 16.0916C15.796 16.3873 15.395 16.5534 14.9769 16.5534H3.94129C3.52317 16.5534 3.12218 16.3873 2.82653 16.0916C2.53088 15.796 2.36478 15.395 2.36478 14.9768V7.88255Z" stroke="var(--stroke-0, black)" stroke-width="1.57651" stroke-linecap="round" stroke-linejoin="round"/>
</g>
</svg>
