<svg preserveAspectRatio="none" width="100%" height="100%" overflow="visible" style="display: block;" viewBox="0 0 18.9181 18.9181" fill="none" xmlns="http://www.w3.org/2000/svg">
<g id="SVG">
<path id="Vector" d="M3.15302 11.0355C3.00386 11.0361 2.85761 10.9942 2.73127 10.9149C2.60493 10.8356 2.50368 10.7221 2.4393 10.5876C2.37491 10.453 2.35002 10.3029 2.36753 10.1548C2.38503 10.0067 2.44421 9.86653 2.53818 9.75069L10.3419 1.71049C10.4004 1.64292 10.4802 1.59726 10.5681 1.581C10.656 1.56475 10.7469 1.57886 10.8257 1.62103C10.9045 1.66319 10.9667 1.7309 11.0019 1.81305C11.0372 1.89519 11.0435 1.98689 11.0198 2.07309L9.50636 6.81838C9.46173 6.93782 9.44675 7.06631 9.46268 7.19281C9.47862 7.31931 9.52501 7.44007 9.59787 7.5447C9.67073 7.64934 9.76788 7.73474 9.881 7.79358C9.99412 7.85242 10.1198 7.88294 10.2473 7.88253H15.7651C15.9143 7.88202 16.0605 7.92385 16.1869 8.00315C16.3132 8.08245 16.4144 8.19597 16.4788 8.33053C16.5432 8.46508 16.5681 8.61514 16.5506 8.76328C16.5331 8.91141 16.4739 9.05154 16.3799 9.16738L8.57622 17.2076C8.51768 17.2752 8.43791 17.3208 8.35 17.3371C8.2621 17.3533 8.17127 17.3392 8.09244 17.2971C8.01361 17.2549 7.95146 17.1872 7.91619 17.105C7.88091 17.0229 7.87461 16.9312 7.89832 16.845L9.41177 12.0997C9.4564 11.9803 9.47138 11.8518 9.45545 11.7253C9.43951 11.5988 9.39312 11.478 9.32026 11.3734C9.2474 11.2687 9.15025 11.1833 9.03713 11.1245C8.92402 11.0657 8.79831 11.0351 8.67081 11.0355H3.15302Z" stroke="var(--stroke-0, black)" stroke-width="1.57651" stroke-linecap="round" stroke-linejoin="round"/>
</g>
</svg>
