<svg preserveAspectRatio="none" width="100%" height="100%" overflow="visible" style="display: block;" viewBox="0 0 110 35.6002" fill="none" xmlns="http://www.w3.org/2000/svg">
<g id="g4158">
<path id="polygon9" d="M47.6666 35.0865H38.7558L44.3292 0.624593H53.2395L47.6666 35.0865Z" fill="var(--fill-0, #00579F)"/>
<path id="path11" d="M79.9689 1.46718C78.2113 0.769893 75.4236 0 71.9766 0C63.177 0 56.9803 4.69244 56.9423 11.4012C56.8692 16.351 61.3789 19.1001 64.7518 20.7505C68.1993 22.437 69.3712 23.5377 69.3712 25.041C69.3361 27.3497 66.5855 28.4139 64.02 28.4139C60.4624 28.4139 58.5562 27.8652 55.6593 26.5808L54.486 26.0302L53.239 33.7661C55.3289 34.7182 59.1794 35.5632 63.177 35.6002C72.5268 35.6002 78.6138 30.9804 78.6859 23.8311C78.7215 19.9081 76.3402 16.9021 71.2063 14.4457C68.0897 12.8689 66.181 11.8057 66.181 10.1923C66.2176 8.72561 67.7954 7.22334 71.3135 7.22334C74.2103 7.14976 76.3387 7.84608 77.9511 8.54288L78.7571 8.90882L79.9689 1.46718Z" fill="var(--fill-0, #00579F)"/>
<path id="path13" d="M91.8121 22.8779C92.5459 20.8981 95.3697 13.2357 95.3697 13.2357C95.3326 13.3093 96.1021 11.2194 96.5421 9.93639L97.1648 12.9058C97.1648 12.9058 98.8522 21.1549 99.2187 22.8779C97.826 22.8779 93.5721 22.8779 91.8121 22.8779ZM102.811 0.624593H95.9188C93.7933 0.624593 92.1785 1.24733 91.2615 3.48391L78.0257 35.086H87.3755C87.3755 35.086 88.9148 30.8326 89.2456 29.9166C90.2713 29.9166 99.3668 29.9166 100.686 29.9166C100.942 31.1265 101.75 35.086 101.75 35.086H110L102.811 0.624593Z" fill="var(--fill-0, #00579F)"/>
<path id="path15" d="M31.3132 0.624593L22.5866 24.1243L21.633 19.3583C20.0196 13.8589 14.9598 7.88399 9.31325 4.91309L17.3065 35.05H26.7294L40.7356 0.624593H31.3132Z" fill="var(--fill-0, #00579F)"/>
<path id="path17" d="M14.4832 0.624593H0.146669L0 1.32091C11.1834 4.18071 18.59 11.0742 21.633 19.3598L18.5164 3.52143C18.0033 1.32042 16.4265 0.697197 14.4832 0.624593Z" fill="var(--fill-0, #FAA61A)"/>
</g>
</svg>
