<svg preserveAspectRatio="none" width="100%" height="100%" overflow="visible" style="display: block;" viewBox="0 0 16 16" fill="none" xmlns="http://www.w3.org/2000/svg">
<g id="SVG">
<path id="Vector" d="M12.6667 11.3333H14C14.4 11.3333 14.6667 11.0667 14.6667 10.6667V8.66667C14.6667 8.06667 14.2 7.53333 13.6667 7.4C12.4667 7.06667 10.6667 6.66667 10.6667 6.66667C10.6667 6.66667 9.8 5.73333 9.2 5.13333C8.86667 4.86667 8.46667 4.66667 8 4.66667H3.33333C2.93333 4.66667 2.6 4.93333 2.4 5.26667L1.46667 7.2C1.37839 7.45748 1.33333 7.7278 1.33333 8V10.6667C1.33333 11.0667 1.6 11.3333 2 11.3333H3.33333" stroke="var(--stroke-0, #05AFD1)" stroke-width="1.33333" stroke-linecap="round" stroke-linejoin="round"/>
<path id="Vector_2" d="M4.66667 12.6667C5.40305 12.6667 6 12.0697 6 11.3333C6 10.597 5.40305 10 4.66667 10C3.93029 10 3.33333 10.597 3.33333 11.3333C3.33333 12.0697 3.93029 12.6667 4.66667 12.6667Z" stroke="var(--stroke-0, #05AFD1)" stroke-width="1.33333" stroke-linecap="round" stroke-linejoin="round"/>
<path id="Vector_3" d="M6 11.3333H10" stroke="var(--stroke-0, #05AFD1)" stroke-width="1.33333" stroke-linecap="round" stroke-linejoin="round"/>
<path id="Vector_4" d="M11.3333 12.6667C12.0697 12.6667 12.6667 12.0697 12.6667 11.3333C12.6667 10.597 12.0697 10 11.3333 10C10.597 10 10 10.597 10 11.3333C10 12.0697 10.597 12.6667 11.3333 12.6667Z" stroke="var(--stroke-0, #05AFD1)" stroke-width="1.33333" stroke-linecap="round" stroke-linejoin="round"/>
</g>
</svg>
