<svg preserveAspectRatio="none" width="100%" height="100%" overflow="visible" style="display: block;" viewBox="0 0 16 16" fill="none" xmlns="http://www.w3.org/2000/svg">
<g id="SVG">
<path id="Vector" d="M10 4.66667H10.6667C11.0203 4.66667 11.3594 4.80714 11.6095 5.05719C11.8595 5.30724 12 5.64638 12 6V10C12 10.3536 11.8595 10.6928 11.6095 10.9428C11.3594 11.1929 11.0203 11.3333 10.6667 11.3333H9.33333" stroke="var(--stroke-0, #05AFD1)" stroke-width="1.33333" stroke-linecap="round" stroke-linejoin="round"/>
<path id="Vector_2" d="M4 4.66667H2.66667C2.31304 4.66667 1.97391 4.80714 1.72386 5.05719C1.47381 5.30724 1.33333 5.64638 1.33333 6V10C1.33333 10.3536 1.47381 10.6928 1.72386 10.9428C1.97391 11.1929 2.31304 11.3333 2.66667 11.3333H3.33333" stroke="var(--stroke-0, #05AFD1)" stroke-width="1.33333" stroke-linecap="round" stroke-linejoin="round"/>
<path id="Vector_3" d="M7.33333 4.66667L5.33333 8H8L6 11.3333" stroke="var(--stroke-0, #05AFD1)" stroke-width="1.33333" stroke-linecap="round" stroke-linejoin="round"/>
<path id="Vector_4" d="M14.6667 7.33333V8.66667" stroke="var(--stroke-0, #05AFD1)" stroke-width="1.33333" stroke-linecap="round" stroke-linejoin="round"/>
</g>
</svg>
