<svg preserveAspectRatio="none" width="100%" height="100%" overflow="visible" style="display: block;" viewBox="0 0 132.38 28.7297" fill="none" xmlns="http://www.w3.org/2000/svg">
<g id="Group 1">
<g id="Group">
<path id="Vector" d="M23.2243 28.7297H5.49823C2.46275 28.7297 0 26.2669 0 23.2315V5.49823C0 2.46275 2.46275 0 5.49823 0H23.2243C26.2598 0 28.7225 2.46275 28.7225 5.49823V23.2243C28.7225 26.2669 26.2598 28.7297 23.2243 28.7297Z" fill="var(--fill-0, #05AFD1)"/>
<g id="Group_2">
<path id="Vector_2" d="M17.8764 11.0753H9.28542C8.77712 11.0753 8.36189 10.6601 8.36189 10.1518V7.03757C8.36189 6.52927 8.77712 6.11404 9.28542 6.11404H17.8764C19.2438 6.11404 20.3535 7.22371 20.3535 8.59111C20.3606 9.96566 19.251 11.0753 17.8764 11.0753Z" fill="var(--fill-0, white)"/>
<path id="Vector_3" d="M10.7817 22.6084C12.1181 22.6084 13.2015 21.5251 13.2015 20.1886C13.2015 18.8522 12.1181 17.7689 10.7817 17.7689C9.44526 17.7689 8.36189 18.8522 8.36189 20.1886C8.36189 21.5251 9.44526 22.6084 10.7817 22.6084Z" fill="var(--fill-0, white)"/>
<path id="Vector_4" d="M16.7524 15.8933C16.3801 16.2656 15.8575 16.5018 15.2848 16.5018H10.7888C9.70064 16.5018 8.78427 17.2178 8.47643 18.1986C8.46927 18.22 8.44779 18.2344 8.42631 18.2344C8.39768 18.2344 8.36904 18.2057 8.36904 18.1771V13.2731C8.36904 12.7648 8.78427 12.3495 9.29257 12.3495H15.2561C16.3873 12.3495 17.3395 13.2373 17.3681 14.3684C17.3753 14.9626 17.139 15.4996 16.7524 15.8933Z" fill="var(--fill-0, white)"/>
</g>
</g>
<path id="Vector_5" d="M129.667 23.5965H79.7745C78.2782 23.5965 77.0611 22.3794 77.0611 20.8832V12.7146C77.0611 11.2183 78.2782 10.0013 79.7745 10.0013H129.667C131.163 10.0013 132.38 11.2183 132.38 12.7146V20.8832C132.38 22.3794 131.163 23.5965 129.667 23.5965Z" fill="var(--fill-0, #05AFD1)"/>
<path id="Vector_6" d="M44.981 9.25693H38.774V13.3018H42.69C43.227 13.3018 43.6494 13.7314 43.6494 14.2612C43.6494 14.8196 43.2198 15.2205 42.69 15.2205H38.774V20.7187C38.774 21.2986 38.3229 21.7425 37.7502 21.7425C37.1775 21.7425 36.7265 21.2915 36.7265 20.7187V8.35487C36.7265 7.77498 37.1775 7.33111 37.7502 7.33111H44.981C45.5179 7.33111 45.9403 7.71771 45.9403 8.29044C45.9403 8.82738 45.4964 9.25693 44.981 9.25693Z" fill="var(--fill-0, #05AFD1)"/>
<g id="Group_3">
<path id="Vector_7" d="M54.474 16.8528C54.474 17.1965 54.2807 17.5473 53.6937 17.5473H47.2361C47.3435 19.0364 48.3601 20.1604 50.1499 20.1604C51.2739 20.1604 51.9397 19.7738 52.6556 19.1008C52.8274 18.929 53.0637 18.7786 53.3285 18.7786C53.7796 18.7786 54.1733 19.1008 54.1733 19.6234C54.1733 19.8382 54.0659 20.0315 53.9156 20.2033C53.0923 21.1555 51.6247 21.7783 50.0711 21.7783C46.8495 21.7783 45.1456 19.5304 45.1456 16.8314C45.1456 14.0035 47.2003 11.8844 49.9852 11.8844C52.6985 11.8844 54.474 14.0822 54.474 16.8528ZM49.9781 13.5023C48.489 13.5023 47.4724 14.5619 47.2791 15.9007H52.5911C52.4193 14.6049 51.4457 13.5023 49.9781 13.5023Z" fill="var(--fill-0, #05AFD1)"/>
<path id="Vector_8" d="M64.9908 16.8528C64.9908 17.1965 64.7975 17.5473 64.2105 17.5473H57.7529C57.8603 19.0364 58.8769 20.1604 60.6667 20.1604C61.7907 20.1604 62.4565 19.7738 63.1724 19.1008C63.3442 18.929 63.5804 18.7786 63.8453 18.7786C64.2964 18.7786 64.6901 19.1008 64.6901 19.6234C64.6901 19.8382 64.5827 20.0315 64.4324 20.2033C63.6091 21.1555 62.1415 21.7783 60.5879 21.7783C57.3663 21.7783 55.6624 19.5304 55.6624 16.8314C55.6624 14.0035 57.7171 11.8844 60.502 11.8844C63.2225 11.8844 64.9908 14.0822 64.9908 16.8528ZM60.502 13.5023C59.0129 13.5023 57.9963 14.5619 57.803 15.9007H63.1151C62.9433 14.6049 61.9696 13.5023 60.502 13.5023Z" fill="var(--fill-0, #05AFD1)"/>
<path id="Vector_9" d="M70.6966 11.8842C72.1428 11.8842 73.3312 12.6431 74.0256 13.7384V8.26169C74.0256 7.70328 74.4337 7.24509 75.0422 7.24509C75.6436 7.24509 76.0588 7.58157 76.0588 8.14715V20.6757C76.0588 21.2341 75.7152 21.6923 75.0852 21.6923C74.4623 21.6923 74.0901 21.2198 74.0901 20.6542V19.9168C73.4386 21.0408 72.1428 21.771 70.6966 21.771C68.2124 21.771 66.1792 19.6949 66.1792 16.824C66.1792 13.8458 68.2124 11.8842 70.6966 11.8842ZM71.1047 20.0886C72.8515 20.0886 74.0185 18.5566 74.0185 16.824C74.0185 15.0915 72.8515 13.5595 71.1047 13.5595C69.3579 13.5595 68.2124 14.8767 68.2124 16.824C68.2124 18.7713 69.3579 20.0886 71.1047 20.0886Z" fill="var(--fill-0, #05AFD1)"/>
</g>
<g id="Group_4">
<path id="Vector_10" d="M82.9674 21.7925C81.6072 21.7925 80.3973 21.3629 79.531 20.69C79.2303 20.4537 79.1014 20.1316 79.1014 19.8452C79.1014 19.4156 79.4451 19.1293 79.8818 19.1293C80.2254 19.1293 80.4402 19.2581 80.6836 19.43C81.2635 19.8595 82.0868 20.2747 83.1249 20.2747C84.2918 20.2747 84.9147 19.8452 84.9147 19.1722C84.9147 18.4348 84.3133 18.1556 82.7956 17.7476C80.1395 17.0317 79.1659 16.1296 79.1659 14.5689C79.1659 12.9509 80.655 11.8914 82.9889 11.8914C83.8766 11.8914 84.8646 12.1062 85.6664 12.4928C86.2463 12.772 86.6615 13.1156 86.6615 13.5523C86.6615 13.9389 86.4467 14.3112 85.8812 14.3112C85.602 14.3112 85.3228 14.1823 84.9934 14.0105C84.3921 13.6883 83.7191 13.5165 82.9388 13.5165C81.8577 13.5165 81.1275 13.7957 81.1275 14.5546C81.1275 15.292 81.779 15.5282 83.3325 15.9793C85.6664 16.6522 86.8763 17.2751 86.8763 19.0219C86.8763 20.6255 85.5375 21.7925 82.9674 21.7925Z" fill="var(--fill-0, white)"/>
<path id="Vector_11" d="M109.556 20.6896C109.556 21.248 109.17 21.7062 108.54 21.7062C107.938 21.7062 107.545 21.2552 107.545 20.6896V20.2171C106.943 21.1263 105.798 21.7921 104.395 21.7921C101.374 21.7921 99.6196 19.5871 99.6196 16.8451C99.6196 14.1461 101.567 11.8982 104.609 11.8982C107.717 11.8982 109.556 13.9314 109.556 16.8451V20.6896ZM104.588 13.6235C102.863 13.6235 101.653 15.0697 101.653 16.8451C101.653 18.6994 102.669 20.0668 104.588 20.0668C106.378 20.0668 107.523 18.5347 107.523 16.8451C107.523 14.8549 106.313 13.6235 104.588 13.6235Z" fill="var(--fill-0, white)"/>
<path id="Vector_12" d="M119.515 13.2587C119.687 13.452 119.816 13.6453 119.816 13.9746C119.816 14.4041 119.472 14.7979 118.885 14.7979C118.52 14.7979 118.283 14.4972 118.019 14.2824C117.525 13.8529 116.895 13.6095 116.186 13.6095C114.174 13.6095 113.143 15.1201 113.143 16.8526C113.143 18.5851 114.181 20.0957 116.186 20.0957C116.902 20.0957 117.525 19.8594 118.019 19.4227C118.276 19.2079 118.513 18.9072 118.885 18.9072C119.465 18.9072 119.816 19.2938 119.816 19.7305C119.816 20.0527 119.687 20.246 119.515 20.4465C118.863 21.2268 117.525 21.8067 116.164 21.8067C112.986 21.8067 111.11 19.6232 111.11 16.8597C111.11 14.0963 112.986 11.9128 116.164 11.9128C117.525 11.8984 118.863 12.4855 119.515 13.2587Z" fill="var(--fill-0, white)"/>
<path id="Vector_13" d="M130.332 16.8666C130.332 17.2103 130.139 17.561 129.552 17.561H123.094C123.202 19.0502 124.218 20.1741 126.008 20.1741C127.132 20.1741 127.798 19.7875 128.514 19.1146C128.686 18.9428 128.922 18.7924 129.187 18.7924C129.638 18.7924 130.032 19.1146 130.032 19.6372C130.032 19.852 129.924 20.0453 129.774 20.2171C128.951 21.1693 127.483 21.7921 125.929 21.7921C122.708 21.7921 121.004 19.5441 121.004 16.8451C121.004 14.0173 123.059 11.8982 125.844 11.8982C128.564 11.8982 130.332 14.1032 130.332 16.8666ZM125.844 13.5161C124.354 13.5161 123.338 14.5757 123.145 15.9144H128.457C128.285 14.6186 127.311 13.5161 125.844 13.5161Z" fill="var(--fill-0, white)"/>
<path id="Vector_14" d="M93.8994 21.7923C92.4533 21.7923 91.2648 21.0334 90.5704 19.9381V23.6608C90.3055 23.6895 90.0191 23.7038 89.7113 23.7109C89.2889 23.7181 88.8951 23.6966 88.5443 23.6608V13.0009C88.5443 12.4424 88.888 11.9843 89.518 11.9843C90.1408 11.9843 90.5131 12.4568 90.5131 13.0223V13.7597C91.1646 12.6357 92.4604 11.9055 93.9066 11.9055C96.3908 11.9055 98.424 13.9817 98.424 16.8525C98.4097 19.8235 96.3836 21.7923 93.8994 21.7923ZM93.4842 13.5807C91.7373 13.5807 90.5704 15.1128 90.5704 16.8453C90.5704 18.5778 91.7373 20.1099 93.4842 20.1099C95.231 20.1099 96.3765 18.7926 96.3765 16.8453C96.3836 14.898 95.2382 13.5807 93.4842 13.5807Z" fill="var(--fill-0, white)"/>
</g>
</g>
</svg>
