<svg width="100%" height="100%" viewBox="0 0 48 48" fill="none" xmlns="http://www.w3.org/2000/svg">
  <path d="M0.991821 15.9369C0.991821 14.8323 1.88725 13.9369 2.99182 13.9369H45.0082C46.1127 13.9369 47.0082 14.8323 47.0082 15.9369V27.0838C47.0082 27.2995 46.9733 27.5138 46.9048 27.7184L45.2387 32.6978C44.9658 33.5133 44.2021 34.0631 43.3421 34.0631H4.65793C3.79791 34.0631 3.03418 33.5133 2.76129 32.6978L1.09518 27.7184C1.02672 27.5138 0.991821 27.2995 0.991821 27.0838V15.9369Z" stroke="#0F172A" stroke-width="1.5"></path>
  <path d="M3.95618 30.2664C3.73404 29.6174 4.21635 28.9426 4.90229 28.9426H43.0973C43.7833 28.9426 44.2656 29.6174 44.0434 30.2664L43.7025 31.2623C43.5641 31.6667 43.1839 31.9384 42.7564 31.9384H5.24315C4.81568 31.9384 4.43547 31.6667 4.29704 31.2623L3.95618 30.2664Z" fill="#0F172A"></path>
  <path d="M6.65369 30.4405H41.3461" stroke="#F1F2F3" stroke-linecap="round"></path>
  <path d="M3.50305 27.0973H44.4965" stroke="#DDE0E6" stroke-linecap="round"></path>
  <path opacity="0.9" d="M22.8824 22.5312L25.1178 22.5312" stroke="#0F172A" stroke-width="1.5" stroke-linecap="round"></path>
</svg>