<svg xmlns="http://www.w3.org/2000/svg" xmlns:xlink="http://www.w3.org/1999/xlink" fill="none" version="1.1" width="100%" height="100%" viewBox="0 0 158.3359375 47.0419921875" class="flex-1 lg:w-auto max-w-[132px] h-[42px] cursor-pointer">
  <defs>
    <linearGradient x1="0.499984472990036" y1="1.002655029296875" x2="0.499984472990036" y2="-2.603827953338623" id="master_svg0_14_17785">
      <stop offset="0%" stop-color="#1A1A1A" stop-opacity="0.10000000149011612"></stop>
      <stop offset="12.300000339746475%" stop-color="#212121" stop-opacity="0.1509999930858612"></stop>
      <stop offset="30.799999833106995%" stop-color="#353535" stop-opacity="0.22699999809265137"></stop>
      <stop offset="53.200000524520874%" stop-color="#575757" stop-opacity="0.3179999887943268"></stop>
      <stop offset="78.29999923706055%" stop-color="#858585" stop-opacity="0.42100000381469727"></stop>
      <stop offset="100%" stop-color="#B3B3B3" stop-opacity="0.5099999904632568"></stop>
    </linearGradient>
  </defs>
  <g>
    <g><path d="M157.286921875,41.488375C157.286921875,43.978475,155.271921875,45.996475,152.787921875,45.993875L5.549991875,45.993875C3.064961875,45.996475,1.048161275,43.979475,1.044921875,41.488375L1.044921875,5.558275C1.048158635,3.066205,3.064011875,1.047521819,5.549991875,1.046875L152.786921875,1.046875C155.271921875,1.0468749053666,157.286921875,3.066885,157.285921875,5.558275L157.286921875,41.488375Z" fill="#FFFFFF" fill-opacity="1"></path></g>
    <g><path d="M152.787,47.0421L5.54948,47.0421C2.48852,47.0415,0.00582328,44.5569,0,41.4884L0,5.55955C0.00452791,2.4896,2.48703,0.00259082,5.54948,0L152.786,0C155.848,0.00388133,158.33,2.49013,158.336,5.55955L158.336,41.4884C158.338,44.5517,155.844,47.0421,152.787,47.0421Z" fill="#86868B" fill-opacity="1"></path></g>
    <g><path d="M157.286921875,41.488375C157.286921875,43.978475,155.271921875,45.996475,152.787921875,45.993875L5.549991875,45.993875C3.064961875,45.996475,1.048161275,43.979475,1.044921875,41.488375L1.044921875,5.558275C1.048158635,3.066205,3.064011875,1.047521819,5.549991875,1.046875L152.786921875,1.046875C155.271921875,1.0468749053666,157.286921875,3.066885,157.285921875,5.558275L157.286921875,41.488375Z" fill="#000000" fill-opacity="1"></path></g>
    <g><path d="M35.355618750000005,23.273376562499998C35.32161875,19.4818765625,38.452518749999996,17.637376562500002,38.59561875,17.5514765625C36.82251875,14.9599265625,34.07421875,14.6058365625,33.10841875,14.5775965625C30.80011875,14.3340865625,28.561018750000002,15.9621965625,27.38521875,15.9621965625C26.18591875,15.9621965625,24.37518875,14.6011265625,22.42365875,14.6411265625C19.91236875,14.6799465625,17.56301875,16.137476562499998,16.27451875,18.4007765625C13.61536875,23.0157765625,15.59858075,29.7975765625,18.146248749999998,33.5278765625C19.42066875,35.355976562500004,20.909848750000002,37.3945765625,22.85902875,37.3228765625C24.76596875,37.2451765625,25.47831875,36.105276562499995,27.77951875,36.105276562499995C30.05961875,36.105276562499995,30.72851875,37.3228765625,32.71641875,37.276976562499996C34.76301875,37.2451765625,36.05151875,35.441776562499996,37.28131875,33.5984765625C38.75411875,31.5056765625,39.34551875,29.4422765625,39.369018749999995,29.3363765625C39.32201875,29.3199765625,35.39551875,27.8165765625,35.355618750000005,23.273376562499998ZM31.60041875,12.1236765625C32.62601875,10.8378965625,33.32781875,9.0886265625,33.133018750000005,7.3134765625C31.64851875,7.3793534625,29.79201875,8.3428065625,28.72301875,9.6003565625C27.77711875,10.7084965625,26.93221875,12.5248265625,27.15051875,14.2329165625C28.81801875,14.357616562499999,30.53021875,13.389456562500001,31.60041875,12.1236765625Z" fill="#FFFFFF" fill-opacity="1"></path></g>
    <g><path d="M152.78697499999998,0L73.921875,0L104.811875,47.0421L152.78697499999998,47.0421C155.848475,47.0395,158.330575,44.5539,158.336475,41.4849L158.336475,5.55955C158.331275,2.48987,155.849175,0.00323748,152.78697499999998,0Z" fill="url(#master_svg0_14_17785)" fill-opacity="1"></path></g>
    <g>
      <g><path d="M62.975189739990235,37.060776626586915L60.310189739990236,37.060776626586915L58.85030973999024,32.46227662658691L53.77609973999024,32.46227662658691L52.385489739990234,37.060776626586915L49.790889739990234,37.060776626586915L54.819339739990234,21.405523626586913L57.924419739990235,21.405523626586913L62.975189739990235,37.060776626586915ZM58.410249739990235,30.533026626586913L57.09005973999024,26.445116626586916C56.950409739990235,26.027506626586913,56.68754973999023,25.044056626586915,56.302639739990234,23.495946626586914L56.25570973999024,23.495946626586914C56.10079973999024,24.161766626586914,55.853189739990235,25.145226626586915,55.514049739990234,26.445116626586916L54.21615973999023,30.533026626586913L58.410249739990235,30.533026626586913ZM75.88128973999024,31.277676626586913C75.88128973999024,33.19747662658691,75.36148973999023,34.715076626586914,74.32058973999023,35.82907662658691C73.38878973999023,36.82077662658691,72.23058973999024,37.31597662658692,70.84938973999023,37.31597662658692C69.35778973999024,37.31597662658692,68.28528973999023,36.78307662658691,67.63398973999023,35.71497662658692L67.63398973999023,41.63797662658692L65.13208973999023,41.63797662658692L65.13208973999023,29.482526626586914C65.13208973999023,28.276736626586914,65.10038973999023,27.040366626586916,65.03938973999024,25.772226626586914L67.23968973999024,25.772226626586914L67.37928973999024,27.561496626586916L67.42628973999024,27.561496626586916C68.26058973999024,26.213366626586915,69.52678973999024,25.539306626586914,71.22608973999023,25.539306626586914C72.55448973999023,25.539306626586914,73.66338973999024,26.065146626586916,74.55058973999023,27.118006626586915C75.43658973999024,28.173216626586914,75.88128973999024,29.558986626586915,75.88128973999024,31.277676626586913ZM73.33248973999024,31.369476626586916C73.33248973999024,30.270696626586915,73.08598973999024,29.364876626586913,72.59078973999024,28.650816626586913C72.04978973999023,27.908526626586912,71.32348973999024,27.536796626586913,70.41278973999023,27.536796626586913C69.79558973999023,27.536796626586913,69.23458973999024,27.743836626586912,68.73348973999023,28.152036626586913C68.23128973999023,28.563766626586915,67.90268973999024,29.101376626586912,67.74898973999024,29.767206626586912C67.68028973999023,30.016206626586914,67.64128973999024,30.272476626586915,67.63278973999023,30.530676626586914L67.63278973999023,32.41407662658691C67.63278973999023,33.233976626586916,67.88388973999024,33.92687662658692,68.38618973999024,34.49387662658691C68.88838973999023,35.05857662658691,69.54088973999023,35.342076626586916,70.34358973999024,35.342076626586916C71.28588973999024,35.342076626586916,72.01928973999023,34.97617662658691,72.54388973999023,34.25037662658691C73.06958973999023,33.52217662658691,73.33248973999024,32.562276626586915,73.33248973999024,31.369476626586916ZM88.83318973999023,31.277676626586913C88.83318973999023,33.19747662658691,88.31338973999024,34.715076626586914,87.27248973999023,35.82907662658691C86.33958973999023,36.82077662658691,85.18248973999023,37.31597662658692,83.80008973999023,37.31597662658692C82.30858973999023,37.31597662658692,81.23598973999023,36.78307662658691,80.58468973999024,35.71497662658692L80.58468973999024,41.63797662658692L78.08278973999023,41.63797662658692L78.08278973999023,29.482526626586914C78.08278973999023,28.276736626586914,78.05108973999023,27.040366626586916,77.99008973999024,25.772226626586914L80.19038973999024,25.772226626586914L80.33008973999023,27.561496626586916L80.37698973999024,27.561496626586916C81.21018973999023,26.213366626586915,82.47638973999022,25.539306626586914,84.17678973999023,25.539306626586914C85.50398973999023,25.539306626586914,86.61298973999024,26.065146626586916,87.50248973999024,27.118006626586915C88.38728973999024,28.173216626586914,88.83328973999024,29.558986626586915,88.83318973999023,31.277676626586913ZM86.28318973999023,31.369476626586916C86.28318973999023,30.270696626586915,86.03558973999023,29.364876626586913,85.54038973999023,28.650816626586913C84.99938973999024,27.908526626586912,84.27538973999023,27.536796626586913,83.36468973999024,27.536796626586913C82.74748973999024,27.536796626586913,82.18648973999024,27.743836626586912,81.68308973999024,28.152036626586913C81.18088973999023,28.563766626586915,80.85348973999024,29.101376626586912,80.69968973999023,29.767206626586912C80.62338973999023,30.077766626586914,80.58238973999023,30.330686626586914,80.58238973999023,30.530676626586914L80.58238973999023,32.41407662658691C80.58238973999023,33.233976626586916,80.83468973999024,33.92687662658692,81.33458973999024,34.49387662658691C81.83688973999023,35.057376626586915,82.48928973999023,35.342076626586916,83.29428973999023,35.342076626586916C84.23778973999023,35.342076626586916,84.97128973999023,34.97617662658691,85.49458973999023,34.25037662658691C86.02038973999024,33.52217662658691,86.28318973999023,32.562276626586915,86.28318973999023,31.369476626586916ZM103.31418973999024,32.669276626586914C103.31418973999024,34.002176626586916,102.84948973999023,35.085576626586914,101.92598973999023,35.92197662658691C100.90968973999023,36.83487662658691,99.49098973999023,37.29247662658692,97.67198973999024,37.29247662658692C95.99158973999023,37.29247662658692,94.64438973999023,36.96777662658691,93.62818973999023,36.31727662658692L94.20668973999022,34.226876626586915C95.30388973999024,34.87857662658691,96.50908973999023,35.20327662658691,97.82108973999024,35.20327662658691C98.76458973999024,35.20327662658691,99.49798973999023,34.98917662658691,100.02138973999024,34.56447662658692C100.54588973999023,34.13857662658691,100.81118973999023,33.56927662658691,100.81118973999023,32.85867662658691C100.81118973999023,32.22227662658692,100.59168973999024,31.689376626586913,100.16098973999024,31.255276626586912C99.72798973999024,30.822416626586914,99.01218973999023,30.418916626586913,98.00648973999023,30.048356626586916C95.27218973999024,29.026086626586913,93.90388973999023,27.530916626586915,93.90388973999023,25.564016626586913C93.90388973999023,24.279406626586916,94.38738973999023,23.227726626586914,95.35198973999024,22.405446626586915C96.31668973999024,21.584332626586914,97.59578973999024,21.173776626586914,99.18698973999022,21.173776626586914C100.60808973999023,21.173776626586914,101.79218973999023,21.421991626586912,102.73218973999023,21.917246626586913L102.10438973999024,23.961786626586914C101.21948973999024,23.481826626586916,100.22088973999024,23.241846626586913,99.10368973999024,23.241846626586913C98.22118973999024,23.241846626586913,97.52888973999023,23.459476626586913,97.03368973999024,23.892386626586912C96.61708973999023,24.279406626586916,96.40578973999024,24.751136626586913,96.40578973999024,25.311096626586913C96.40578973999024,25.928686626586913,96.64638973999024,26.441586626586915,97.12518973999023,26.843906626586914C97.54058973999022,27.214466626586912,98.29868973999024,27.617966626586913,99.39478973999024,28.050876626586913C100.73958973999024,28.594356626586915,101.72768973999024,29.227246626586915,102.36018973999023,29.954246626586915C102.99738973999024,30.681246626586912,103.31418973999024,31.588276626586914,103.31418973999024,32.669276626586914ZM111.60738973999023,27.654436626586914L108.84968973999023,27.654436626586914L108.84968973999023,33.13517662658691C108.84968973999023,34.52917662658692,109.33548973999024,35.22437662658692,110.30948973999023,35.22437662658692C110.75658973999023,35.22437662658692,111.12738973999024,35.18677662658691,111.42078973999023,35.10797662658692L111.48998973999024,37.01247662658692C110.99718973999023,37.19717662658691,110.34818973999023,37.29017662658691,109.54438973999024,37.29017662658691C108.55628973999023,37.29017662658691,107.78408973999024,36.987776626586914,107.22668973999023,36.383176626586916C106.67158973999022,35.778476626586915,106.39228973999023,34.76557662658691,106.39228973999023,33.339876626586914L106.39228973999023,27.649726626586915L104.74938973999024,27.649726626586915L104.74938973999024,25.767526626586914L106.39228973999023,25.767526626586914L106.39228973999023,23.700636626586913L108.84958973999024,22.957166626586915L108.84958973999024,25.767526626586914L111.60738973999023,25.767526626586914L111.60738973999023,27.654436626586914ZM124.02528973999023,31.323576626586913C124.02528973999023,33.058676626586916,123.53008973999023,34.483276626586914,122.54198973999023,35.59727662658692C121.50818973999023,36.74427662658691,120.13278973999023,37.31597662658692,118.41838973999023,37.31597662658692C116.76368973999024,37.31597662658692,115.44818973999024,36.766676626586914,114.46718973999023,35.669076626586914C113.48608973999023,34.569176626586916,112.99558973999024,33.18337662658691,112.99558973999024,31.511776626586915C112.99558973999024,29.762496626586916,113.50258973999024,28.329666626586913,114.51288973999023,27.215636626586914C115.52568973999024,26.100436626586912,116.88928973999023,25.542836626586915,118.60378973999023,25.542836626586915C120.25608973999023,25.542836626586915,121.58328973999024,26.093376626586913,122.58778973999023,27.192116626586916C123.54768973999023,28.257906626586916,124.02528973999023,29.634266626586914,124.02528973999023,31.323576626586913ZM121.43188973999024,31.381176626586914C121.43188973999024,30.347156626586916,121.20888973999024,29.460166626586915,120.76178973999023,28.717876626586914C120.23728973999023,27.821476626586914,119.48628973999024,27.373276626586915,118.51338973999023,27.373276626586915C117.51128973999023,27.373276626586915,116.74258973999024,27.821476626586914,116.21918973999023,28.717876626586914C115.77098973999023,29.460166626586915,115.54798973999023,30.362446626586916,115.54798973999023,31.428276626586914C115.54798973999023,32.46347662658691,115.77088973999024,33.352776626586916,116.21918973999023,34.09277662658691C116.76018973999024,34.98917662658691,117.51478973999023,35.43737662658691,118.49228973999024,35.43737662658691C119.44868973999023,35.43737662658691,120.19858973999024,34.979676626586915,120.74068973999023,34.07037662658691C121.20068973999024,33.31047662658691,121.43188973999024,32.417576626586914,121.43188973999024,31.381176626586914ZM132.16118973999022,27.977936626586914C131.90098973999022,27.930836626586913,131.63708973999024,27.907606626586915,131.37258973999025,27.908536626586915C130.49248973999022,27.908536626586915,129.81188973999025,28.240266626586916,129.3330897399902,28.908446626586915C128.91768973999024,29.496636626586913,128.70878973999024,30.240106626586915,128.70878973999024,31.137686626586913L128.70878973999024,37.060776626586915L126.20688973999023,37.060776626586915L126.20688973999023,29.327236626586917C126.20908973999023,28.142236626586914,126.18488973999024,26.957326626586912,126.13408973999023,25.773406626586915L128.31328973999024,25.773406626586915L128.40488973999024,27.933236626586915L128.47408973999023,27.933236626586915C128.73928973999023,27.190936626586915,129.15468973999023,26.592166626586913,129.72498973999024,26.143966626586913C130.24708973999023,25.752326626586914,130.88138973999025,25.540246626586914,131.53338973999024,25.539306626586914C131.76458973999024,25.539306626586914,131.9734897399902,25.555776626586912,132.15888973999023,25.585186626586914L132.16118973999022,27.977936626586914ZM143.35058973999026,30.882406626586913C143.35688973999024,31.263676626586914,143.32618973999024,31.644676626586914,143.25898973999023,32.01997662658691L135.75328973999024,32.01997662658691C135.78148973999023,33.13517662658691,136.14528973999023,33.98917662658691,136.84228973999024,34.57737662658691C137.47478973999023,35.102076626586914,138.29278973999024,35.365576626586915,139.29728973999022,35.365576626586915C140.40858973999025,35.365576626586915,141.42248973999023,35.18907662658691,142.33428973999025,34.83267662658692L142.72618973999022,36.572576626586915C141.66068973999023,37.03837662658691,140.40268973999025,37.27017662658692,138.95108973999024,37.27017662658692C137.20488973999022,37.27017662658692,135.83428973999025,36.75487662658691,134.83678973999025,35.72677662658691C133.84168973999022,34.697376626586916,133.34288973999026,33.313976626586914,133.34288973999026,31.581176626586917C133.34288973999026,29.880136626586914,133.80648973999024,28.462606626586915,134.73468973999024,27.332106626586913C135.70638973999024,26.125146626586915,137.01948973999023,25.521666626586914,138.67178973999023,25.521666626586914C140.29478973999022,25.521666626586914,141.52338973999025,26.125146626586915,142.35778973999024,27.332106626586913C143.01838973999025,28.288496626586912,143.35048973999022,29.474286626586913,143.35058973999026,30.882406626586913ZM140.96478973999024,30.231876626586914C140.98238973999025,29.487226626586914,140.81808973999023,28.846106626586913,140.47898973999025,28.303796626586916C140.04598973999023,27.605026626586913,139.37938973999024,27.256816626586915,138.48638973999022,27.256816626586915C137.66848973999024,27.256816626586915,137.00188973999025,27.596786626586912,136.49498973999022,28.279086626586913C136.07838973999023,28.821396626586914,135.83078973999022,29.47310662658691,135.75448973999022,30.229516626586914L140.96478973999024,30.231876626586914Z" fill="#FFFFFF" fill-opacity="1"></path></g>
    </g>
    <g>
      <g><path d="M53.055737272949216,15.870606650543213C52.35985727294922,15.870606650543213,51.75785027294922,15.836486650543213,51.25676727294922,15.778846650543214L51.25676727294922,8.210043650543213C51.95759527294922,8.101516650543212,52.66579727294922,8.048024650543212,53.37493727294922,8.050055650543213C56.24414727294922,8.050055650543213,57.56550727294922,9.465236650543213,57.56550727294922,11.772106650543213C57.56550727294922,14.433076650543214,56.00474727294922,15.870606650543213,53.055737272949216,15.870606650543213ZM53.47584727294922,9.020566650543213C53.088597272949215,9.020566650543213,52.75884727294922,9.044096650543214,52.48541727294922,9.100556650543213L52.48541727294922,14.854216650543213C52.63327727294922,14.877746650543212,52.91726727294922,14.888326650543213,53.316257272949215,14.888326650543213C55.196207272949216,14.888326650543213,56.26643727294922,13.815476650543213,56.26643727294922,11.806226650543213C56.26643727294922,10.014606650543213,55.298307272949216,9.020566650543213,53.47584727294922,9.020566650543213ZM61.68326727294922,15.928246650543214C60.066237272949216,15.928246650543214,59.01829727294922,14.717756650543212,59.01829727294922,13.074356650543212C59.01829727294922,11.361556650543212,60.08852727294922,10.140476650543214,61.77486727294922,10.140476650543214C63.36846727294922,10.140476650543214,64.43986727294921,11.293326650543213,64.43986727294921,12.983776650543213C64.43986727294921,14.717756650543212,63.33556727294922,15.928246650543214,61.68326727294922,15.928246650543214ZM61.73026727294922,11.041576650543213C60.84191727294922,11.041576650543213,60.27276727294922,11.874456650543213,60.27276727294922,13.039066650543212C60.27276727294922,14.181326650543213,60.85364727294922,15.014206650543212,61.71846727294922,15.014206650543212C62.58336727294922,15.014206650543212,63.16426727294922,14.123686650543213,63.16426727294922,13.015536650543213C63.16426727294922,11.886216650543213,62.59506727294922,11.041576650543213,61.73026727294922,11.041576650543213ZM73.66126727294922,10.254586650543214L71.93026727294922,15.802376650543213L70.80256727294922,15.802376650543213L70.08556727294922,13.393156650543212C69.90726727294921,12.803846650543214,69.75886727294922,12.205876650543214,69.64086727294922,11.601536650543213L69.61736727294922,11.601536650543213C69.52696727294922,12.206196650543212,69.35566727294922,12.812026650543213,69.17376727294922,13.393156650543212L68.41096727294922,15.802376650543213L67.27156727294923,15.802376650543213L65.64266727294921,10.254586650543214L66.90656727294922,10.254586650543214L67.53316727294921,12.892016650543212C67.68106727294922,13.520206650543212,67.80546727294922,14.113096650543213,67.90876727294922,14.673056650543213L67.93216727294921,14.673056650543213C68.02256727294922,14.206036650543213,68.17036727294922,13.622546650543214,68.38746727294922,12.903786650543214L69.17376727294922,10.255756650543212L70.17596727294922,10.255756650543212L70.92816727294922,12.847316650543213C71.11006727294922,13.475496650543214,71.25786727294923,14.091926650543213,71.37286727294922,14.674226650543213L71.40576727294922,14.674226650543213C71.48556727294923,14.103686650543214,71.61116727294922,13.497856650543213,71.78126727294922,12.847316650543213L72.45366727294922,10.255756650543212L73.66126727294922,10.254586650543214ZM80.03336727294922,15.802376650543213L78.80346727294922,15.802376650543213L78.80346727294922,12.616746650543213C78.80346727294922,11.635646650543213,78.42796727294922,11.143926650543213,77.68746727294922,11.143926650543213C76.95876727294922,11.143926650543213,76.45766727294922,11.772106650543213,76.45766727294922,12.502636650543213L76.45766727294922,15.802376650543213L75.22786727294923,15.802376650543213L75.22786727294923,11.840336650543213C75.22786727294923,11.349786650543212,75.21616727294922,10.823946650543213,75.18206727294921,10.253406650543212L76.26406727294922,10.253406650543212L76.32156727294922,11.109806650543213L76.35556727294922,11.109806650543213C76.68646727294922,10.516916650543212,77.35776727294922,10.140476650543214,78.10996727294922,10.140476650543214C79.27176727294922,10.140476650543214,80.03446727294921,11.030996650543212,80.03446727294921,12.480286650543214L80.03336727294922,15.802376650543213ZM83.42476727294923,15.802376650543213L82.19376727294922,15.802376650543213L82.19376727294922,7.708907407610213L83.42476727294923,7.708907407610213L83.42476727294923,15.802376650543213ZM87.90866727294922,15.928246650543214C86.29276727294922,15.928246650543214,85.24366727294921,14.717756650543212,85.24366727294921,13.074356650543212C85.24366727294921,11.361556650543212,86.31386727294921,10.140476650543214,87.99906727294922,10.140476650543214C89.59386727294921,10.140476650543214,90.66406727294921,11.293326650543213,90.66406727294921,12.983776650543213C90.66526727294922,14.717756650543212,89.55976727294922,15.928246650543214,87.90866727294922,15.928246650543214ZM87.95446727294922,11.041576650543213C87.06616727294922,11.041576650543213,86.49696727294922,11.874456650543213,86.49696727294922,13.039066650543212C86.49696727294922,14.181326650543213,87.07906727294922,15.014206650543212,87.94156727294921,15.014206650543212C88.80756727294923,15.014206650543212,89.38726727294922,14.123686650543213,89.38726727294922,13.015536650543213C89.38846727294921,11.886216650543213,88.82046727294922,11.041576650543213,87.95446727294922,11.041576650543213ZM95.51296727294923,15.802376650543213L95.42376727294922,15.163606650543212L95.39096727294921,15.163606650543212C95.01536727294922,15.677676650543212,94.46736727294922,15.928246650543214,93.77266727294922,15.928246650543214C92.78106727294922,15.928246650543214,92.07696727294922,15.231836650543212,92.07696727294922,14.295436650543213C92.07696727294922,12.926136650543214,93.26106727294922,12.217956650543213,95.31116727294922,12.217956650543213L95.31116727294922,12.115616650543213C95.31116727294922,11.385086650543213,94.92506727294922,11.019226650543214,94.16226727294922,11.019226650543214C93.61656727294923,11.019226650543214,93.13776727294922,11.156866650543213,92.71656727294922,11.430966650543212L92.46656727294922,10.620436650543212C92.97816727294922,10.300466650543212,93.61656727294923,10.140476650543214,94.36646727294922,10.140476650543214C95.81216727294921,10.140476650543214,96.54216727294923,10.905126650543213,96.54216727294923,12.435586650543213L96.54216727294923,14.478956650543214C96.54216727294923,15.038906650543213,96.56676727294922,15.472986650543213,96.62196727294922,15.803556650543213L95.51296727294923,15.802376650543213ZM95.34396727294921,13.039066650543212C93.97806727294922,13.039066650543212,93.29266727294922,13.370806650543212,93.29266727294922,14.157806650543213C93.29266727294922,14.740106650543213,93.64596727294922,15.024786650543213,94.13646727294922,15.024786650543213C94.76196727294922,15.024786650543213,95.34396727294921,14.546006650543212,95.34396727294921,13.895466650543213L95.34396727294921,13.039066650543212ZM102.51406727294922,15.802376650543213L102.45656727294923,14.911856650543214L102.42256727294921,14.911856650543214C102.06936727294922,15.584746650543213,101.47556727294922,15.928246650543214,100.64586727294922,15.928246650543214C99.31156727294922,15.928246650543214,98.32346727294922,14.751876650543213,98.32346727294922,13.096706650543213C98.32346727294922,11.361556650543212,99.34796727294922,10.139296650543212,100.74676727294923,10.139296650543212C101.48726727294923,10.139296650543212,102.01186727294922,10.389866650543212,102.30756727294923,10.893356650543213L102.33216727294922,10.893356650543213L102.33216727294922,7.708906650543213L103.56316727294922,7.708906650543213L103.56316727294922,14.307196650543213C103.56316727294922,14.843626650543213,103.57606727294922,15.345936650543212,103.60896727294923,15.802376650543213L102.51406727294922,15.802376650543213ZM102.33216727294922,12.537936650543212C102.33216727294922,11.761526650543214,101.81936727294922,11.099226650543212,101.03666727294922,11.099226650543212C100.12486727294922,11.099226650543212,99.56746727294922,11.909746650543212,99.56746727294922,13.050836650543213C99.56746727294922,14.169566650543214,100.14596727294922,14.935386650543212,101.01196727294922,14.935386650543212C101.78536727294922,14.935386650543212,102.33216727294922,14.261326650543213,102.33216727294922,13.462566650543213L102.33216727294922,12.537936650543212ZM111.36816727294922,15.928246650543214C109.75226727294921,15.928246650543214,108.70426727294921,14.717756650543212,108.70426727294921,13.074356650543212C108.70426727294921,11.361556650543212,109.77456727294921,10.140476650543214,111.45966727294922,10.140476650543214C113.05446727294921,10.140476650543214,114.12466727294921,11.293326650543213,114.12466727294921,12.983776650543213C114.12586727294922,14.717756650543212,113.02156727294923,15.928246650543214,111.36816727294922,15.928246650543214ZM111.41386727294922,11.041576650543213C110.52676727294923,11.041576650543213,109.95756727294922,11.874456650543213,109.95756727294922,13.039066650543212C109.95756727294922,14.181326650543213,110.53846727294922,15.014206650543212,111.40216727294921,15.014206650543212C112.26826727294922,15.014206650543212,112.84796727294922,14.123686650543213,112.84796727294922,13.015536650543213C112.85026727294922,11.886216650543213,112.28116727294922,11.041576650543213,111.41386727294922,11.041576650543213ZM120.73856727294923,15.802376650543213L119.50756727294922,15.802376650543213L119.50756727294922,12.616746650543213C119.50756727294922,11.635646650543213,119.13196727294923,11.143926650543213,118.39156727294922,11.143926650543213C117.66276727294922,11.143926650543213,117.16286727294921,11.772106650543213,117.16286727294921,12.502636650543213L117.16286727294921,15.802376650543213L115.93186727294922,15.802376650543213L115.93186727294922,11.840336650543213C115.93186727294922,11.349786650543212,115.92016727294921,10.823946650543213,115.88606727294922,10.253406650543212L116.96806727294921,10.253406650543212L117.02556727294922,11.109806650543213L117.05956727294922,11.109806650543213C117.38936727294922,10.516916650543212,118.06176727294923,10.139296650543212,118.81276727294922,10.139296650543212C119.97456727294922,10.139296650543212,120.73856727294923,11.029816650543212,120.73856727294923,12.479116650543212L120.73856727294923,15.802376650543213ZM129.01286727294922,11.179216650543212L127.65986727294921,11.179216650543212L127.65986727294921,13.873116650543214C127.65986727294921,14.558946650543213,127.89686727294922,14.901266650543214,128.37566727294922,14.901266650543214C128.59276727294923,14.901266650543214,128.77466727294922,14.877746650543212,128.92136727294923,14.843626650543213L128.95536727294922,15.780026650543213C128.7171672729492,15.871776650543213,128.39796727294922,15.917656650543213,128.0013672729492,15.917656650543213C127.03196727294922,15.917656650543213,126.45226727294921,15.381226650543212,126.45226727294921,13.976636650543213L126.45226727294921,11.179216650543212L125.64496727294922,11.179216650543212L125.64496727294922,10.254586650543214L126.45226727294921,10.254586650543214L126.45226727294921,9.238196650543212L127.65986727294921,8.872346650543212L127.65986727294921,10.253406650543212L129.01286727294922,10.253406650543212L129.01286727294922,11.179216650543212ZM135.52346727294923,15.802376650543213L134.29476727294923,15.802376650543213L134.29476727294923,12.640276650543214C134.29476727294923,11.647416650543214,133.92046727294922,11.145106650543212,133.17876727294922,11.145106650543212C132.54156727294924,11.145106650543212,131.94776727294922,11.579186650543214,131.94776727294922,12.457936650543214L131.94776727294922,15.802376650543213L130.71916727294922,15.802376650543213L130.71916727294922,7.7089089217432125L131.94776727294922,7.7089089217432125L131.94776727294922,11.041586650543213L131.97246727294922,11.041586650543213C132.35966727294922,10.436926650543214,132.92066727294923,10.139306650543213,133.63646727294923,10.139306650543213C134.8075672729492,10.139306650543213,135.52346727294923,11.052166650543214,135.52346727294923,12.502646650543213L135.52346727294923,15.802376650543213ZM142.1936672729492,13.324926650543212L138.5029672729492,13.324926650543212C138.52646727294922,14.375426650543213,139.21996727294922,14.968326650543213,140.24676727294923,14.968326650543213C140.79246727294924,14.968326650543213,141.29476727294923,14.876566650543213,141.7382672729492,14.705996650543213L141.9295672729492,15.562396650543214C141.40616727294923,15.790606650543213,140.79016727294922,15.904716650543213,140.0731672729492,15.904716650543213C138.3421672729492,15.904716650543213,137.31776727294923,14.808336650543213,137.31776727294923,13.108476650543214C137.31776727294923,11.407436650543213,138.3668672729492,10.128716650543213,139.9346672729492,10.128716650543213C141.34866727294923,10.128716650543213,142.23586727294924,11.179216650543212,142.23586727294924,12.766146650543213C142.24386727294922,12.953426650543213,142.2296672729492,13.140986650543212,142.1936672729492,13.324926650543212ZM141.06586727294922,12.446176650543212C141.06586727294922,11.589776650543213,140.63526727294922,10.985116650543212,139.8489672729492,10.985116650543212C139.14256727294924,10.985116650543212,138.58396727294922,11.601536650543213,138.50416727294922,12.446176650543212L141.06586727294922,12.446176650543212Z" fill="#FFFFFF" fill-opacity="1"></path></g>
    </g>
  </g>
</svg>