<svg width="100%" height="100%" viewBox="0 0 14 14" fill="none" xmlns="http://www.w3.org/2000/svg">
<g clip-path="url(#clip0_3_19106)">
<path d="M7.71289 11.8025L12.239 7.16797" stroke="currentColor" stroke-width="1.16563" stroke-linecap="round" stroke-linejoin="round"/>
<path d="M9.32492 3.49873L4.42113 8.50276C4.2026 8.72135 4.07985 9.01778 4.07985 9.32686C4.07985 9.63594 4.2026 9.93237 4.42113 10.151C4.63971 10.3695 4.93614 10.4922 5.24522 10.4922C5.55431 10.4922 5.85074 10.3695 6.06932 10.151L10.9731 5.14692C11.4102 4.70975 11.6557 4.11689 11.6557 3.49873C11.6557 2.88056 11.4102 2.2877 10.9731 1.85053C10.5359 1.41349 9.94309 1.16797 9.32492 1.16797C8.70676 1.16797 8.1139 1.41349 7.67672 1.85053L2.77235 6.85398C2.1165 7.50983 1.74805 8.39935 1.74805 9.32686C1.74805 10.2544 2.1165 11.1439 2.77235 11.7997C3.42819 12.4556 4.31772 12.824 5.24522 12.824C6.17273 12.824 7.06226 12.4556 7.7181 11.7997" stroke="currentColor" stroke-width="1.16563" stroke-linecap="round" stroke-linejoin="round"/>
</g>
<defs>
<clipPath id="clip0_3_19106">
<rect width="13.9875" height="13.9875" fill="currentColor"/>
</clipPath>
</defs>
</svg>
