<svg preserveAspectRatio="none" width="100%" height="100%" overflow="visible" style="display: block;" viewBox="0 0 17.984 17.984" fill="none" xmlns="http://www.w3.org/2000/svg">
<g id="Bell" clip-path="url(#clip0_0_54)">
<path id="Vector" d="M7.69414 15.736C7.82568 15.9638 8.01486 16.1529 8.24268 16.2845C8.4705 16.416 8.72892 16.4852 8.99198 16.4852C9.25504 16.4852 9.51346 16.416 9.74128 16.2845C9.9691 16.1529 10.1583 15.9638 10.2898 15.736" stroke="currentColor" stroke-width="1.49866" stroke-linecap="round" stroke-linejoin="round"/>
<path id="Vector_2" d="M2.44432 11.4843C2.34643 11.5915 2.28183 11.725 2.25838 11.8683C2.23492 12.0116 2.25363 12.1587 2.31222 12.2916C2.37081 12.4245 2.46675 12.5375 2.58838 12.6169C2.71002 12.6962 2.85209 12.7385 2.99733 12.7386H14.9866C15.1319 12.7387 15.274 12.6965 15.3957 12.6173C15.5174 12.5381 15.6134 12.4252 15.6722 12.2924C15.7309 12.1596 15.7498 12.0126 15.7266 11.8693C15.7033 11.7259 15.6389 11.5924 15.5411 11.485C14.5445 10.4577 13.488 9.3659 13.488 5.99465C13.488 4.80224 13.0143 3.65867 12.1711 2.81551C11.328 1.97235 10.1844 1.49866 8.99198 1.49866C7.79957 1.49866 6.656 1.97235 5.81284 2.81551C4.96967 3.65867 4.49599 4.80224 4.49599 5.99465C4.49599 9.3659 3.43868 10.4577 2.44432 11.4843Z" stroke="currentColor" stroke-width="1.49866" stroke-linecap="round" stroke-linejoin="round"/>
</g>
<defs>
<clipPath id="clip0_0_54">
<rect width="17.984" height="17.984" fill="white"/>
</clipPath>
</defs>
</svg>
