<svg width="100%" height="100%" viewBox="0 0 14 14" fill="none" xmlns="http://www.w3.org/2000/svg">
<path d="M3.49609 6.99454H8.74142C9.3597 6.99454 9.95267 7.24015 10.3899 7.67735C10.8271 8.11454 11.0727 8.70751 11.0727 9.32579C11.0727 9.94408 10.8271 10.537 10.3899 10.9742C9.95267 11.4114 9.3597 11.657 8.74142 11.657H4.07891C3.92434 11.657 3.77609 11.5956 3.6668 11.4863C3.5575 11.377 3.49609 11.2288 3.49609 11.0742V2.91484C3.49609 2.76027 3.5575 2.61203 3.6668 2.50273C3.77609 2.39343 3.92434 2.33203 4.07891 2.33203H8.1586C8.77689 2.33203 9.36985 2.57764 9.80705 3.01484C10.2442 3.45203 10.4899 4.045 10.4899 4.66329C10.4899 5.28157 10.2442 5.87454 9.80705 6.31173C9.36985 6.74893 8.77689 6.99454 8.1586 6.99454" stroke="currentColor" stroke-width="1.16563" stroke-linecap="round" stroke-linejoin="round"/>
</svg>
