<svg width="100%" height="100%" viewBox="0 0 12 12" fill="none" xmlns="http://www.w3.org/2000/svg">
<g clip-path="currentColor">
<path d="M3 10.9981V1.99981C3 1.73464 3.10534 1.48034 3.29284 1.29284C3.48034 1.10534 3.73464 1 3.99981 1H7.99903C8.2642 1 8.5185 1.10534 8.706 1.29284C8.8935 1.48034 8.99884 1.73464 8.99884 1.99981V10.9981H3Z" stroke="currentColor" stroke-width="0.999806" stroke-linecap="round" stroke-linejoin="round"/>
<path d="M2.99961 6H1.99981C1.73464 6 1.48034 6.10534 1.29284 6.29284C1.10534 6.48034 1 6.73464 1 6.99981V9.99922C1 10.2644 1.10534 10.5187 1.29284 10.7062C1.48034 10.8937 1.73464 10.999 1.99981 10.999H2.99961" stroke="currentColor" stroke-width="0.999806" stroke-linecap="round" stroke-linejoin="round"/>
<path d="M8.99805 4.5H9.99785C10.263 4.5 10.5173 4.60534 10.7048 4.79284C10.8923 4.98034 10.9977 5.23464 10.9977 5.49981V9.99893C10.9977 10.2641 10.8923 10.5184 10.7048 10.7059C10.5173 10.8934 10.263 10.9987 9.99785 10.9987H8.99805" stroke="currentColor" stroke-width="0.999806" stroke-linecap="round" stroke-linejoin="round"/>
<path d="M5 3H6.99961" stroke="currentColor" stroke-width="0.999806" stroke-linecap="round" stroke-linejoin="round"/>
<path d="M5 5H6.99961" stroke="currentColor" stroke-width="0.999806" stroke-linecap="round" stroke-linejoin="round"/>
<path d="M5 7H6.99961" stroke="currentColor" stroke-width="0.999806" stroke-linecap="round" stroke-linejoin="round"/>
<path d="M5 9H6.99961" stroke="currentColor" stroke-width="0.999806" stroke-linecap="round" stroke-linejoin="round"/>
</g>
<defs>
<clipPath id="clip0_3_16866">
<rect width="11.9977" height="11.9977" fill="white"/>
</clipPath>
</defs>
</svg>
