<svg width="100%" height="100%" viewBox="0 0 48 48" fill="none" xmlns="http://www.w3.org/2000/svg">
  <rect x="9" y="4.5" width="30" height="39" rx="2" stroke="#0F172A" stroke-width="1.5"></rect>
  <rect x="11.5239" y="16.2768" width="24.9519" height="21.6077" rx="2" fill="#F1F2F3" stroke="#0F172A"></rect>
  <path opacity="0.9" d="M31.7344 8.11998L36.4761 8.11998" stroke="#0F172A" stroke-width="1.5" stroke-linecap="round"></path>
  <path opacity="0.9" d="M11.5437 8.11998L12.8793 8.11998" stroke="#0F172A" stroke-width="1.5" stroke-linecap="round"></path>
  <path opacity="0.9" d="M15.2114 8.11998L16.547 8.11998" stroke="#0F172A" stroke-width="1.5" stroke-linecap="round"></path>
  <ellipse cx="29.8801" cy="28.8227" rx="3.82886" ry="6.47363" stroke="#0F172A"></ellipse>
  <path d="M26.3908 22.4116C25.8479 22.2831 25.295 22.3533 24.7696 22.6173C24.2441 22.8812 23.7583 23.3329 23.345 23.9417C22.9316 24.5506 22.6005 25.3023 22.3738 26.1462C22.1472 26.9901 22.0304 27.9065 22.0313 28.8333C22.0321 29.7601 22.1507 30.6758 22.379 31.5185C22.6073 32.3611 22.9399 33.1111 23.3544 33.7176C23.7689 34.3241 24.2556 34.7731 24.7815 35.0342C25.3075 35.2953 25.8605 35.3624 26.4032 35.2309" stroke="#0F172A" stroke-linecap="round"></path>
  <path d="M22.5207 22.4116C21.9778 22.2831 21.4249 22.3533 20.8995 22.6173C20.374 22.8812 19.8882 23.3329 19.4748 23.9417C19.0615 24.5506 18.7304 25.3023 18.5037 26.1462C18.2771 26.9901 18.1602 27.9065 18.1611 28.8333C18.162 29.7601 18.2806 30.6758 18.5089 31.5185C18.7372 32.3611 19.0698 33.1111 19.4843 33.7176C19.8988 34.3241 20.3855 34.7731 20.9114 35.0342C21.4374 35.2953 21.9904 35.3624 22.533 35.2309" stroke="#0F172A" stroke-linecap="round"></path>
  <path d="M18.6506 22.4116C18.1077 22.2831 17.5548 22.3533 17.0293 22.6173C16.5039 22.8812 16.018 23.3329 15.6047 23.9417C15.1914 24.5506 14.8602 25.3023 14.6336 26.1462C14.407 26.9901 14.2901 27.9065 14.291 28.8333C14.2919 29.7601 14.4105 30.6758 14.6388 31.5185C14.867 32.3611 15.1997 33.1111 15.6142 33.7176C16.0286 34.3241 16.5153 34.7731 17.0413 35.0342C17.5673 35.2953 18.1203 35.3624 18.6629 35.2309" stroke="#0F172A" stroke-linecap="round"></path>
  <path d="M11.0205 11.0262H36.9797" stroke="#DDE0E6" stroke-linecap="round"></path>
  <path d="M13.0725 44.2278H16.0725" stroke="#0F172A" stroke-width="1.5" stroke-linecap="round"></path>
  <path d="M31.9275 44.2278H34.9275" stroke="#0F172A" stroke-width="1.5" stroke-linecap="round"></path>
</svg>