<svg preserveAspectRatio="none" width="100%" height="100%" overflow="visible" style="display: block;" viewBox="0 0 15.9857 15.9857" fill="none" xmlns="http://www.w3.org/2000/svg">
<g id="kpi.icon" clip-path="url(#clip0_0_46)">
<path id="Vector" d="M7.99287 1.33215V14.6536" stroke="var(--stroke-0, #09234A)" stroke-width="1.33215" stroke-linecap="round" stroke-linejoin="round"/>
<path id="Vector_2" d="M11.3232 3.33036H6.32769C5.7094 3.33036 5.11644 3.57598 4.67924 4.01317C4.24205 4.45037 3.99644 5.04333 3.99644 5.66162C3.99644 6.2799 4.24205 6.87287 4.67924 7.31006C5.11644 7.74726 5.7094 7.99287 6.32769 7.99287H9.65805C10.2763 7.99287 10.8693 8.23849 11.3065 8.67568C11.7437 9.11288 11.9893 9.70584 11.9893 10.3241C11.9893 10.9424 11.7437 11.5354 11.3065 11.9726C10.8693 12.4098 10.2763 12.6554 9.65805 12.6554H3.99644" stroke="var(--stroke-0, #09234A)" stroke-width="1.33215" stroke-linecap="round" stroke-linejoin="round"/>
</g>
<defs>
<clipPath id="clip0_0_46">
<rect width="15.9857" height="15.9857" fill="white"/>
</clipPath>
</defs>
</svg>
