<svg width="100%" height="100%" viewBox="0 0 12 12" fill="none" xmlns="http://www.w3.org/2000/svg">
<g clip-path="url(#clip0_3_15084)">
<path d="M1.03125 6.17298C0.989584 6.06074 0.989584 5.93728 1.03125 5.82505C1.43702 4.84116 2.12579 3.99992 3.01025 3.40797C3.8947 2.81601 4.93501 2.5 5.99928 2.5C7.06355 2.5 8.10386 2.81601 8.98832 3.40797C9.87277 3.99992 10.5615 4.84116 10.9673 5.82505C11.009 5.93728 11.009 6.06074 10.9673 6.17298C10.5615 7.15686 9.87277 7.99811 8.98832 8.59006C8.10386 9.18202 7.06355 9.49803 5.99928 9.49803C4.93501 9.49803 3.8947 9.18202 3.01025 8.59006C2.12579 7.99811 1.43702 7.15686 1.03125 6.17298Z" stroke="currentColor" stroke-width="0.999806" stroke-linecap="round" stroke-linejoin="round"/>
<path d="M5.99873 7.49942C6.827 7.49942 7.49844 6.82798 7.49844 5.99971C7.49844 5.17144 6.827 4.5 5.99873 4.5C5.17047 4.5 4.49902 5.17144 4.49902 5.99971C4.49902 6.82798 5.17047 7.49942 5.99873 7.49942Z" stroke="currentColor" stroke-width="0.999806" stroke-linecap="round" stroke-linejoin="round"/>
</g>
<defs>
<clipPath id="clip0_3_15084">
<rect width="11.9977" height="11.9977" fill="currentColor"/>
</clipPath>
</defs>
</svg>
