<svg width="100%" height="100%" viewBox="0 0 48 48" fill="none" xmlns="http://www.w3.org/2000/svg">
  <rect x="5.06018" y="11.925" width="37.8792" height="24.15" rx="2" stroke="#0F172A" stroke-width="1.5"></rect>
  <path d="M0.956665 17.6946C0.956665 16.8857 1.61244 16.2299 2.42137 16.2299H5.06045V19.1593H2.42137C1.61243 19.1593 0.956665 18.5035 0.956665 17.6946Z" stroke="#0F172A" stroke-width="1.5"></path>
  <path d="M47.0433 31.2954C47.0433 30.4865 46.3876 29.8307 45.5786 29.8307H42.9395V32.7601H45.5786C46.3876 32.7601 47.0433 32.1044 47.0433 31.2954Z" stroke="#0F172A" stroke-width="1.5"></path>
  <rect x="8.3446" y="15.231" width="2.83108" height="17.5379" rx="1.41554" stroke="#DDE0E6"></rect>
  <rect x="14.0404" y="15.231" width="2.83108" height="17.5379" rx="1.41554" stroke="#DDE0E6"></rect>
  <rect x="19.7362" y="15.231" width="2.83108" height="17.5379" rx="1.41554" stroke="#DDE0E6"></rect>
  <rect x="25.432" y="15.231" width="2.83108" height="17.5379" rx="1.41554" stroke="#DDE0E6"></rect>
  <rect x="31.1278" y="15.231" width="2.83108" height="17.5379" rx="1.41554" stroke="#DDE0E6"></rect>
  <rect x="36.8239" y="15.231" width="2.83108" height="17.5379" rx="1.41554" stroke="#DDE0E6"></rect>
</svg>