<svg width="100%" height="100%" viewBox="0 0 14 14" fill="none" xmlns="http://www.w3.org/2000/svg">
<path d="M11.0731 1.75H2.91367C2.26992 1.75 1.74805 2.27187 1.74805 2.91563V11.075C1.74805 11.7188 2.26992 12.2406 2.91367 12.2406H11.0731C11.7168 12.2406 12.2387 11.7188 12.2387 11.075V2.91563C12.2387 2.27187 11.7168 1.75 11.0731 1.75Z" stroke="currentColor" stroke-width="1.16563" stroke-linecap="round" stroke-linejoin="round"/>
<path d="M5.24571 6.40938C5.88946 6.40938 6.41133 5.88751 6.41133 5.24375C6.41133 4.59999 5.88946 4.07812 5.24571 4.07812C4.60195 4.07812 4.08008 4.59999 4.08008 5.24375C4.08008 5.88751 4.60195 6.40938 5.24571 6.40938Z" stroke="currentColor" stroke-width="1.16563" stroke-linecap="round" stroke-linejoin="round"/>
<path d="M12.2383 8.74141L10.4397 6.94284C10.2211 6.72432 9.92472 6.60156 9.61564 6.60156C9.30655 6.60156 9.01013 6.72432 8.79154 6.94284L3.49609 12.2383" stroke="currentColor" stroke-width="1.16563" stroke-linecap="round" stroke-linejoin="round"/>
</svg>
