<svg preserveAspectRatio="none" width="100%" height="100%" overflow="visible" style="display: block;" viewBox="0 0 15.9857 15.9857" fill="none" xmlns="http://www.w3.org/2000/svg">
<g id="kpi.icon" clip-path="url(#clip0_0_20)">
<path id="Vector" d="M2.66429 9.32502C2.53825 9.32545 2.41467 9.2901 2.30791 9.22309C2.20115 9.15608 2.1156 9.06016 2.0612 8.94646C2.00679 8.83276 1.98576 8.70596 2.00055 8.58079C2.01534 8.45561 2.06535 8.3372 2.14475 8.23932L8.73887 1.44538C8.78834 1.38828 8.85574 1.3497 8.93002 1.33596C9.00431 1.32223 9.08105 1.33415 9.14766 1.36978C9.21427 1.40541 9.26679 1.46263 9.2966 1.53204C9.32641 1.60145 9.33173 1.67894 9.3117 1.75177L8.03284 5.76153C7.99513 5.86245 7.98246 5.97102 7.99593 6.07792C8.0094 6.18481 8.0486 6.28685 8.11016 6.37527C8.17173 6.46368 8.25382 6.53585 8.3494 6.58557C8.44499 6.63529 8.5512 6.66108 8.65895 6.66073H13.3215C13.4475 6.6603 13.5711 6.69564 13.6778 6.76265C13.7846 6.82966 13.8701 6.92559 13.9245 7.03928C13.979 7.15298 14 7.27978 13.9852 7.40496C13.9704 7.53013 13.9204 7.64854 13.841 7.74643L7.24687 14.5404C7.19741 14.5975 7.13 14.636 7.05572 14.6498C6.98144 14.6635 6.90469 14.6516 6.83808 14.616C6.77147 14.5803 6.71895 14.5231 6.68914 14.4537C6.65934 14.3843 6.65401 14.3068 6.67405 14.234L7.95291 10.2242C7.99062 10.1233 8.00328 10.0147 7.98981 9.90783C7.97635 9.80093 7.93715 9.6989 7.87558 9.61048C7.81402 9.52206 7.73192 9.4499 7.63634 9.40018C7.54076 9.35046 7.43454 9.32467 7.3268 9.32502H2.66429Z" stroke="var(--stroke-0, currentColor)" stroke-width="1.33215" stroke-linecap="round" stroke-linejoin="round"/>
</g>
<defs>
<clipPath id="clip0_0_20">
<rect width="15.9857" height="15.9857" fill="white"/>
</clipPath>
</defs>
</svg>
