<svg width="100%" height="100%" viewBox="0 0 14 14" fill="none" xmlns="http://www.w3.org/2000/svg">
<g clip-path="url(#clip0_3_19097)">
<path d="M5.82812 7.57535C6.07842 7.90996 6.39774 8.18683 6.76444 8.38718C7.13115 8.58752 7.53665 8.70666 7.95344 8.73651C8.37024 8.76636 8.78858 8.70622 9.18009 8.56018C9.5716 8.41414 9.92712 8.1856 10.2225 7.89007L11.971 6.14163C12.5018 5.59203 12.7955 4.85593 12.7889 4.09187C12.7822 3.32781 12.4758 2.59693 11.9355 2.05664C11.3952 1.51634 10.6643 1.20987 9.90025 1.20324C9.13619 1.1966 8.40009 1.49032 7.85049 2.02114L6.84805 3.01775" stroke="currentColor" stroke-width="1.16563" stroke-linecap="round" stroke-linejoin="round"/>
<path d="M8.16009 6.41079C7.9098 6.07618 7.59047 5.79931 7.22377 5.59897C6.85707 5.39862 6.45157 5.27948 6.03477 5.24963C5.61797 5.21978 5.19964 5.27992 4.80813 5.42596C4.41662 5.57201 4.06109 5.80055 3.76567 6.09607L2.01723 7.84451C1.48641 8.39411 1.19269 9.13021 1.19933 9.89427C1.20597 10.6583 1.51244 11.3892 2.05273 11.9295C2.59302 12.4698 3.32391 12.7763 4.08797 12.7829C4.85202 12.7895 5.58812 12.4958 6.13772 11.965L7.13434 10.9684" stroke="currentColor" stroke-width="1.16563" stroke-linecap="round" stroke-linejoin="round"/>
</g>
<defs>
<clipPath id="clip0_3_19097">
<rect width="13.9875" height="13.9875" fill="currentColor"/>
</clipPath>
</defs>
</svg>
