<svg width="100%" height="100%" viewBox="0 0 12 12" fill="none" xmlns="http://www.w3.org/2000/svg">
<g clip-path="url(#clip0_3_15065)">
<path d="M10.9978 8.4586V9.95831C10.9984 10.0975 10.9698 10.2353 10.9141 10.3629C10.8583 10.4905 10.7765 10.605 10.6739 10.6991C10.5713 10.7932 10.4502 10.8649 10.3183 10.9095C10.1864 10.9541 10.0467 10.9706 9.90801 10.9581C8.36972 10.791 6.89209 10.2653 5.59384 9.42342C4.38599 8.6559 3.36194 7.63185 2.59442 6.424C1.74958 5.11985 1.22381 3.63503 1.05972 2.08984C1.04723 1.9516 1.06366 1.81227 1.10796 1.68073C1.15227 1.54919 1.22348 1.42831 1.31705 1.3258C1.41063 1.22328 1.52453 1.14138 1.6515 1.08529C1.77847 1.02921 1.91573 1.00018 2.05453 1.00005H3.55424C3.79684 0.997661 4.03204 1.08357 4.21599 1.24177C4.39994 1.39996 4.52009 1.61965 4.55404 1.85988C4.61734 2.33982 4.73473 2.81106 4.90398 3.26461C4.97123 3.44354 4.98579 3.63799 4.94592 3.82494C4.90605 4.01189 4.81343 4.18349 4.67902 4.3194L4.04414 4.95428C4.75578 6.20581 5.79203 7.24206 7.04356 7.9537L7.67844 7.31882C7.81436 7.18442 7.98596 7.09179 8.1729 7.05192C8.35985 7.01205 8.55431 7.02661 8.73323 7.09387C9.18678 7.26311 9.65802 7.3805 10.138 7.4438C10.3808 7.47806 10.6026 7.60037 10.7611 7.78748C10.9196 7.97459 11.0039 8.21344 10.9978 8.4586Z" stroke="currentColor" stroke-opacity="0.5" stroke-width="0.999806" stroke-linecap="round" stroke-linejoin="round"/>
</g>
<defs>
<clipPath id="clip0_3_15065">
<rect width="11.9977" height="11.9977" fill="currentColor"/>
</clipPath>
</defs>
</svg>
