<svg xmlns="http://www.w3.org/2000/svg" width="100%" height="100%" fill="none" viewBox="0 0 48 48">
  <path stroke="#0f172a" stroke-width="1.5" d="M13.78 14.937a1 1 0 0 1 1-1h5.483a.99.99 0 0 0 .99-.989 3.956 3.956 0 0 1 3.955-3.955h9.989a1 1 0 0 1 1 1v2.944a1 1 0 0 0 1 1h2.472a4 4 0 0 1 4 4v12.71a4 4 0 0 1-4 4H14.78a1 1 0 0 1-1-1v-18.71Z"></path>
  <path stroke="#0f172a" stroke-linecap="round" d="M39.025 16.547v15.489"></path>
  <path stroke="#f1f2f3" stroke-linecap="round" d="M33.621 18.896H22.493M33.621 22.493H22.493M33.621 26.09H22.493M33.621 29.687H22.493"></path>
  <path stroke="#0f172a" stroke-linecap="round" stroke-width="3" d="m22.999 35.43-1.012 2.873M34.451 35.433l1.012 2.872"></path>
  <path stroke="#0f172a" stroke-linecap="round" stroke-width="1.5" d="M43.67 39.007H4.33"></path>
  <path stroke="#0f172a" stroke-width="1.5" d="M9.964 17.435h3.816v13.713H9.964z"></path>
  <rect width="4.531" height="16.963" x="5.434" y="15.81" stroke="#0f172a" stroke-width="1.5" rx="1"></rect>
  <path stroke="#0f172a" stroke-linecap="round" stroke-width="1.5" d="M5.357 20.372H3.216M5.357 28.708H3.216"></path>
</svg>