<svg width="16" height="16" viewBox="0 0 26 24" fill="none" xmlns="http://www.w3.org/2000/svg">
<path d="M5.33464 22.6663C5.70283 22.6663 6.0013 22.3679 6.0013 21.9997C6.0013 21.6315 5.70283 21.333 5.33464 21.333C4.96645 21.333 4.66797 21.6315 4.66797 21.9997C4.66797 22.3679 4.96645 22.6663 5.33464 22.6663Z" stroke="#0F1729" stroke-width="1.33333" stroke-linecap="round" stroke-linejoin="round"/>
<path d="M12.6667 22.6668C13.0349 22.6668 13.3333 22.3684 13.3333 22.0002C13.3333 21.632 13.0349 21.3335 12.6667 21.3335C12.2985 21.3335 12 21.632 12 22.0002C12 22.3684 12.2985 22.6668 12.6667 22.6668Z" stroke="#0F1729" stroke-width="1.33333" stroke-linecap="round" stroke-linejoin="round"/>
<path d="M1.36719 9.3667H2.70052L4.47385 17.6467C4.53891 17.9499 4.70763 18.221 4.951 18.4133C5.19436 18.6055 5.49712 18.7069 5.80719 18.7H12.3272C12.6306 18.6995 12.9248 18.5956 13.1612 18.4053C13.3976 18.215 13.5619 17.9497 13.6272 17.6534L14.7272 12.7H3.41385" stroke="#0F1729" stroke-width="1.33333" stroke-linecap="round" stroke-linejoin="round"/>
<circle cx="19.25" cy="6" r="6" fill="#FB2C36"/>
<path d="M18.4722 8.00008V7.6515C18.8227 7.32008 19.1217 7.02103 19.3694 6.75436C19.6208 6.48389 19.8132 6.24008 19.9465 6.02293C20.0836 5.80579 20.1522 5.60198 20.1522 5.4115C20.1522 5.21341 20.097 5.05341 19.9865 4.9315C19.8798 4.80579 19.7198 4.74293 19.5065 4.74293C19.3617 4.74293 19.2265 4.78484 19.1008 4.86865C18.9789 4.94865 18.8665 5.04769 18.7636 5.16579L18.4551 4.86293C18.6113 4.68388 18.777 4.54484 18.9522 4.44579C19.1313 4.34293 19.3408 4.2915 19.5808 4.2915C19.8056 4.2915 20.0017 4.33722 20.1694 4.42865C20.3408 4.51627 20.4722 4.64198 20.5636 4.80579C20.6551 4.9696 20.7008 5.16008 20.7008 5.37722C20.7008 5.6096 20.636 5.84008 20.5065 6.06865C20.3808 6.29341 20.2075 6.52769 19.9865 6.7715C19.7694 7.0115 19.5217 7.27246 19.2436 7.55436C19.3427 7.54293 19.4456 7.53531 19.5522 7.5315C19.6627 7.52388 19.7636 7.52008 19.8551 7.52008H20.8779V8.00008H18.4722Z" fill="white"/>
</svg>
