<svg width="100%" height="100%" viewBox="0 0 12 12" fill="none" xmlns="http://www.w3.org/2000/svg">
<g clip-path="url(#clip0_3_19068)">
<path d="M4.9642 7.74411C4.9196 7.57123 4.82949 7.41346 4.70324 7.28721C4.577 7.16096 4.41922 7.07085 4.24634 7.02625L1.18158 6.23596C1.12929 6.22111 1.08327 6.18962 1.0505 6.14626C1.01773 6.10289 1 6.05002 1 5.99567C1 5.94132 1.01773 5.88845 1.0505 5.84508C1.08327 5.80172 1.12929 5.77022 1.18158 5.75538L4.24634 4.96459C4.41916 4.92003 4.57689 4.83 4.70314 4.70384C4.82938 4.57769 4.91952 4.42002 4.9642 4.24723L5.7545 1.18246C5.76919 1.12997 5.80065 1.08372 5.84408 1.05078C5.88751 1.01783 5.94052 1 5.99503 1C6.04954 1 6.10256 1.01783 6.14599 1.05078C6.18942 1.08372 6.22088 1.12997 6.23557 1.18246L7.02536 4.24723C7.06996 4.42011 7.16007 4.57788 7.28632 4.70413C7.41257 4.83038 7.57034 4.92049 7.74322 4.96509L10.808 5.75488C10.8607 5.76942 10.9072 5.80085 10.9403 5.84434C10.9734 5.88784 10.9914 5.941 10.9914 5.99567C10.9914 6.05034 10.9734 6.1035 10.9403 6.147C10.9072 6.19049 10.8607 6.22192 10.808 6.23645L7.74322 7.02625C7.57034 7.07085 7.41257 7.16096 7.28632 7.28721C7.16007 7.41346 7.06996 7.57123 7.02536 7.74411L6.23507 10.8089C6.22038 10.8614 6.18892 10.9076 6.14549 10.9406C6.10206 10.9735 6.04904 10.9913 5.99453 10.9913C5.94002 10.9913 5.88701 10.9735 5.84358 10.9406C5.80015 10.9076 5.76869 10.8614 5.754 10.8089L4.9642 7.74411Z" stroke="currentColor" stroke-width="0.999109" stroke-linecap="round" stroke-linejoin="round"/>
<path d="M9.99023 1.5V3.49822" stroke="currentColor" stroke-width="0.999109" stroke-linecap="round" stroke-linejoin="round"/>
<path d="M10.9904 2.49609H8.99219" stroke="currentColor" stroke-width="0.999109" stroke-linecap="round" stroke-linejoin="round"/>
<path d="M1.99805 8.49219V9.4913" stroke="currentColor" stroke-width="0.999109" stroke-linecap="round" stroke-linejoin="round"/>
<path d="M2.49716 8.99219H1.49805" stroke="currentColor" stroke-width="0.999109" stroke-linecap="round" stroke-linejoin="round"/>
</g>
<defs>
<clipPath id="clip0_3_19068">
<rect width="11.9893" height="11.9893" fill="currentColor"/>
</clipPath>
</defs>
</svg>
