<svg width="100%" height="100%" viewBox="0 0 20 20" fill="none" xmlns="http://www.w3.org/2000/svg">
<g clip-path="url(#clip0_3_14327)">
<path d="M10.4845 2.15613C10.1721 1.84366 9.74843 1.66806 9.3066 1.66797H3.33208C2.89021 1.66797 2.46644 1.8435 2.154 2.15595C1.84155 2.4684 1.66602 2.89217 1.66602 3.33404V9.30855C1.66611 9.75039 1.8417 10.1741 2.15417 10.4865L9.4049 17.7372C9.78352 18.1134 10.2956 18.3246 10.8294 18.3246C11.3632 18.3246 11.8752 18.1134 12.2539 17.7372L17.7352 12.2558C18.1115 11.8772 18.3226 11.3651 18.3226 10.8313C18.3226 10.2976 18.1115 9.78548 17.7352 9.40685L10.4845 2.15613Z" stroke="#1C1A17" stroke-width="1.66607" stroke-linecap="round" stroke-linejoin="round"/>
<path d="M6.24757 6.66507C6.47761 6.66507 6.66409 6.47858 6.66409 6.24855C6.66409 6.01851 6.47761 5.83203 6.24757 5.83203C6.01754 5.83203 5.83105 6.01851 5.83105 6.24855C5.83105 6.47858 6.01754 6.66507 6.24757 6.66507Z" fill="#1C1A17" stroke="#1C1A17" stroke-width="1.66607" stroke-linecap="round" stroke-linejoin="round"/>
</g>
<defs>
<clipPath id="clip0_3_14327">
<rect width="19.9928" height="19.9928" fill="white"/>
</clipPath>
</defs>
</svg>