<svg xmlns="http://www.w3.org/2000/svg" width="100%" height="100%" fill="none" viewBox="0 0 48 48">
  <path stroke="#0f172a" stroke-width="1.5" d="M10.724 9.63a3 3 0 0 1 3-3h15.23a3 3 0 0 1 3 3v31.74h-21.23z"></path>
  <path fill="#0f172a" d="M35.614 31.383V22.74a4.88 4.88 0 0 0-3.508-4.686L31.903 18l-.702-.174.348-1.405.703.174.262.071a6.33 6.33 0 0 1 4.547 6.075v8.643a1.69 1.69 0 0 0 3.378 0V15.61c0-1.627-.833-2.912-2.278-3.945l-2.63-1.892.496-.877 2.858 1.515a6 6 0 0 1 3.001 5.2v15.772a3.137 3.137 0 0 1-6.272 0"></path>
  <path stroke="#dde0e6" stroke-linecap="round" stroke-width="1.3" d="M15.404 14.35h11.871M15.404 11.97h11.871"></path>
  <path stroke="#0f172a" stroke-linecap="round" stroke-width="1.5" d="M6.864 41.37h28.95"></path>
  <path fill="#0f172a" fill-rule="evenodd" d="M22.695 20.185c.156.087.233.27.186.442l-1.033 3.785h3.768a.389.389 0 0 1 .284.654l-5.443 5.832a.389.389 0 0 1-.659-.368l1.032-3.785h-3.767a.389.389 0 0 1-.284-.654l5.442-5.832a.39.39 0 0 1 .474-.074" clip-rule="evenodd"></path>
</svg>